<?xml version="1.0" encoding="utf-8"?>
<!-- Generator: Adobe Illustrator 22.0.1, SVG Export Plug-In . SVG Version: 6.00 Build 0)  -->
<svg version="1.1" id="Layer_5" xmlns="http://www.w3.org/2000/svg" xmlns:xlink="http://www.w3.org/1999/xlink" x="0px" y="0px"
	 viewBox="0 0 861 256.7" style="enable-background:new 0 0 861 256.7;" xml:space="preserve">
<style type="text/css">
	.st0{fill:inherit;}
</style>
<g>
	<path class="st0" d="M352.6,126.7h-42.7v20.5l7.4,0.2h12v32.5c-0.2,0-0.4,0.1-0.5,0.1c-0.6,0.2-1.3,0.3-2,0.5
		c-5.3,1.2-10.7,2-16.1,2.3c-9.8,0.5-18.4-0.8-25.5-4.1c-6.5-2.9-12-7.7-16-13.8c-3.7-5.7-6.3-12.6-7.8-21.1c-1.6-9.1-2-19-1.3-29.4
		c1.4-19.3,7.6-32.9,18.4-40.5c5.9-4.3,13.5-6.7,22.4-7.4c9.7-0.7,19.5,0.3,28.4,2.9c0.3,0.1,0.6,0.2,1,0.3c0,0,0.1,0,0.1,0v25.3
		h22.1V57c0-0.7,0-3-2.7-4c-0.1,0-0.2-0.1-0.3-0.1l-0.1-0.1c-5.1-2-10.7-3.8-16.8-5.3c-11.2-2.7-22.1-3.8-32.4-3.1
		c-10,0.7-18.9,3-26.7,7c-7.8,3.9-15,9.8-20.8,16.9c-10.6,13.2-16.4,30.5-17.1,51.4c-0.7,22.2,3.3,40.7,12,55
		c4.7,7.7,10.6,14,17.5,18.8c7,4.9,15.3,8.3,24.5,10.1c5.4,1,10.9,1.6,16.6,1.6c4.7,0,9.4-0.3,14.2-1c5.7-0.8,11.2-2.1,16.5-3.7
		c2.6-0.8,5.1-1.7,7.9-2.8l0.8-0.3c0.9-0.4,1.8-0.8,2.8-1.2c2.9-0.8,3.5-2.2,3.7-2.9c0.3-0.9,0.3-1.7,0.2-2.2V126.7z"/>
	<polygon class="st0" points="211.9,17.3 212,0.1 172,0.2 172,20.5 188.5,21 188.5,179.9 172,180 172,200.5 228.4,200.7 228.4,180 
		212,180 	"/>
	<polygon class="st0" points="516.4,66 516.5,45.6 460,45.6 460,66.2 476.4,66.3 476.4,110.9 409.4,111.4 409.4,66.1 425.7,65.7 
		425.6,45.5 369.3,45.5 369.3,66.2 385.8,66.2 385.8,180.1 369.2,180.1 369.9,200.7 425.9,200.6 425.8,180 409.4,179.9 409.4,132 
		476.5,132.2 476.4,219 460.1,219.4 460.2,239.6 516.5,239.6 516.5,218.9 500,218.9 500,66.5 	"/>
	<polygon class="st0" points="570.7,183.6 570.8,200.8 613.5,200.8 612.8,180.1 594.2,180 594.2,66.4 617.1,66.2 617.4,88.2 
		638.9,88.2 638.9,45.5 526,45.5 526.4,88.2 547,88.2 547.4,66.3 570.7,66.6 	"/>
	<polygon class="st0" points="116.8,0 117.5,21.8 127.5,21.6 136.1,21.6 136.1,139.6 115.5,126 18.4,62.1 8,62.1 0.3,61.9 0,214.9 
		0,237.8 41.3,238.2 41.4,216.7 22.3,216.5 22.3,93.2 37.3,103 64.3,120.8 113.4,153.1 125.8,161.4 140.4,170.6 158.4,170.6 
		158.4,167.7 158.4,5.9 158.2,0 	"/>
	<polygon class="st0" points="747.1,160.8 725.7,160.8 725.7,180.1 686.9,180.1 686.8,24.1 703.5,24.1 703.5,3.4 647.6,3.4 
		647.6,24.1 663.3,24.1 663.3,179.9 646.8,179.9 646.8,200.8 747.3,200.7 	"/>
	<path class="st0" d="M810,45.2V66h10.8c-9.5,14.8-19,29.8-28.3,44.4L763.4,66h9.1V45.2h-51v20.9h15c2.8,3,5.2,7.3,7.6,11.4
		c1.3,2.2,2.5,4.3,3.7,6.3c2.2,3.3,4.4,6.7,6.6,10.1c2.2,3.4,4.4,6.8,6.6,10.1c4.7,7.2,14.2,21.8,14.4,22c1.2,1.7,3.2,4.8,4.1,6.5
		c0,2.9,0,4.6,0,6.2c0,0.8,0,1.7,0,2.6c0,2,0,4,0.1,6c0.2,21.2,0.5,47.5-15.4,62.2c-8.9,8.1-20.1,8.1-31.8,8.1H570.6v39.1h20.8
		l-0.1-3.6c-0.1-3.8,0-7.6,0-11.3c0-0.7,0-1.5,0-2.2c23.4,0,47.5,0,71.5-0.1h44c4.2,0,8.6,0.1,12.9,0.2c10.4,0.3,21.2,0.6,31.6-0.8
		c30.3-4.2,45.6-31.2,49.8-55.1c2.1-12.5,2.1-25.1,2.1-37.4c0-2.5,0-4.9,0-7.4v-6.6c1.4-2.2,5-8,6.4-10.2c1.9-2.9,3.8-5.9,5.7-8.8
		c1.9-3,3.9-5.9,5.7-8.8l5.4-8.2c6.3-9.6,12.8-19.5,19.1-29.3c0.5-0.8,0.8-1.1,0.9-1.1c0.3,0,1,0,1.6,0c0.5,0,1.1,0,1.8,0H861V45.2
		H810z"/>
</g>
</svg>
