<?xml version="1.0" encoding="utf-8"?>
<!-- Generator: Adobe Illustrator 22.0.1, SVG Export Plug-In . SVG Version: 6.00 Build 0)  -->
<svg version="1.1" id="Layer_5" xmlns="http://www.w3.org/2000/svg" xmlns:xlink="http://www.w3.org/1999/xlink" x="0px" y="0px"
	 viewBox="0 0 867 262.8" style="enable-background:new 0 0 867 262.8;" xml:space="preserve">
<style type="text/css">
	.st0{fill:#231F20;}
</style>
<path class="st0" d="M358.6,193.9v-67.2h-48.7v26.4l10.2,0.3h9.2v27.1c0,0,0,0-0.1,0h-0.1c-5.1,1.2-10.3,2-15.6,2.2
	c-9.3,0.5-17.4-0.8-24.1-3.8c-6-2.7-11.1-7.1-14.7-12.7c-3.5-5.3-5.9-11.9-7.3-19.9c-1.5-8.8-1.9-18.5-1.2-28.7
	c1.4-18.3,7.1-31.2,17.1-38.3c5.5-3.9,12.5-6.2,20.9-6.8c8.9-0.6,18,0.2,26.2,2.5v26.1h28.1V60c0-4.4-2.9-6.1-4.6-6.8l-0.4-0.2
	c-5.2-2.1-10.9-3.9-17.1-5.5c-11.5-2.8-22.7-3.9-33.3-3.2c-10.4,0.7-19.7,3.2-27.9,7.3c-8.2,4.1-15.7,10.2-21.8,17.7
	c-10.9,13.5-17,31.9-17.7,53.2c-0.8,22.8,3.4,41.9,12.5,56.7c4.9,8,11.1,14.7,18.3,19.7c7.4,5.1,16,8.7,25.7,10.5
	c5.6,1.1,11.3,1.6,17.2,1.6c4.8,0,9.7-0.4,14.7-1.1c5.8-0.9,11.5-2.1,17-3.8c2.7-0.8,5.3-1.8,8.2-2.9l0.8-0.3
	c0.8-0.3,1.8-0.7,2.7-1.2c2.7-0.8,4.6-2.3,5.4-4.4C358.7,196,358.7,194.6,358.6,193.9z"/>
<polygon class="st0" points="218,180 217.9,20.3 218,0.1 172,0.2 172,26.4 188.5,26.9 188.5,179.9 172,180 172,206.5 234.4,206.7 
	234.4,180 "/>
<polygon class="st0" points="506,72.4 522.4,71.9 522.5,45.6 460,45.6 460,72.2 476.4,72.3 476.4,110.9 415.4,111.4 415.4,72 
	431.7,71.6 431.6,45.5 369.3,45.5 369.3,72.2 385.8,72.2 385.8,180.1 369.1,180.1 370,206.7 431.9,206.6 431.8,180 415.4,179.9 
	415.4,138 476.5,138.2 476.4,219.1 460.1,219.5 460.2,245.6 522.5,245.6 522.5,218.9 506,218.9 "/>
<polygon class="st0" points="617.2,72.2 617.5,94.2 644.9,94.2 644.9,45.5 525.9,45.5 526.5,94.2 553,94.2 553.4,72.3 570.7,72.6 
	570.7,186.6 570.8,206.8 619.6,206.8 618.7,180.1 600.2,180 600.2,72.4 "/>
<polygon class="st0" points="164,0 116.7,0 117.6,27.8 130.5,27.6 136.1,27.6 136.1,137 22.3,62.1 11,62.1 0.3,61.8 0,217.9 
	0,243.7 47.3,244.3 47.4,216.8 28.3,216.6 28.3,101.8 38.6,108.5 65.6,126.3 114.7,158.6 127.1,166.8 142.5,176.6 164.4,176.6 
	164.4,172.1 164.4,8.9 "/>
<polygon class="st0" points="753.1,160.8 725.7,160.8 725.7,180.1 692.9,180.1 692.8,30.1 709.5,30.1 709.5,3.4 647.6,3.4 
	647.6,30.1 663.3,30.1 663.3,179.9 646.8,179.9 646.8,206.8 753.3,206.7 "/>
<path class="st0" d="M810,45.2V72h8.3c-7.6,12-15.3,24-22.8,35.8L771.9,72h6.5V45.2h-57v26.9h16.7c2.2,2.7,4.3,6.4,6.4,9.9
	c1.2,2.2,2.5,4.4,3.8,6.4c2.2,3.3,4.4,6.7,6.6,10.1c2.2,3.4,4.4,6.8,6.6,10.1c4.7,7.2,14.2,21.8,14.3,22l0.1,0.1
	c1,1.5,2.7,4,3.6,5.6c0,2.4,0,3.9,0,5.4c0,0.9,0,1.7,0,2.7c0,2,0,4,0.1,6.1c0.2,21.6,0.5,46.2-14.4,59.9c-8.1,7.3-18.1,7.3-29.8,7.3
	H570.6v45.1h26.8l-0.1-6.6c-0.1-3.5,0-7,0-10.5c22.5,0,45.6,0,68.5-0.1h44c4.2,0,8.4,0.1,12.8,0.2c10.6,0.3,21.5,0.6,32.1-0.8
	c31.9-4.4,47.9-32.6,52.3-57.5c2.2-12.7,2.2-25.5,2.2-37.9c0-2.4,0-4.9,0-7.4v-5.7c1.6-2.5,4.7-7.5,6-9.4c1.9-2.9,3.8-5.9,5.7-8.8
	c1.9-3,3.9-5.9,5.7-8.8l5.4-8.2c6.2-9.5,12.7-19.3,19-29.1c0.6,0,1.2,0,1.9,0H867V45.4h-57V45.2z"/>
</svg>
