<?xml version="1.0" encoding="utf-8"?>
<svg version="1.1" xmlns="http://www.w3.org/2000/svg" xmlns:xlink="http://www.w3.org/1999/xlink" x="0px" y="0px"
	 viewBox="0 0 853.7 249.7" xml:space="preserve">
	<g>
		<path class="letter-n" d="M309.9,140.3v-13.6h5.7c0,0,10.4,0,15.6,0c2.8,0,5.6,0,8.4,0c1,0,6,0,6,0s0,4.6,0,5.3c0,2.8,0,5.6,0,8.4
			c0,15.2,0,30.4,0,45.6c0,0.6,0,1.1,0,1.7c0,0.2,0.1,0.6,0,0.8c-0.1,0.3-1.3,0.7-1.7,0.8c-1.2,0.6-2.5,1.1-3.7,1.6
			c-2.5,1-5,1.9-7.6,2.7c-5.2,1.6-10.6,2.8-16,3.6c-9.8,1.4-19.9,1.4-29.7-0.5c-8.3-1.6-16.3-4.7-23.2-9.5
			c-6.7-4.7-12.2-10.8-16.5-17.8c-9.6-15.8-12.1-34.9-11.5-53.1c0.6-17.6,5.1-35.4,16.3-49.3c5.3-6.6,12-12.2,19.6-16
			c7.9-4,16.6-6,25.4-6.6c10.5-0.7,21.1,0.5,31.3,3c5.5,1.4,11,3.1,16.3,5.2c0.9,0.4,0.9,0.2,0.9,0.9c0,0.6,0,1.2,0,1.8
			c0,6.7,0,13.4,0,20c0,3.3,0,6.7,0,10c0,0.8,0,2.8,0,2.8l-15.1,0c0,0,0-1.5,0-2.4c0-6.7,0-13.4,0-20c0-0.5,0.2-1.3,0-1.8
			c0-0.1,0-0.2,0-0.2c-0.2-0.3-1.3-0.4-1.6-0.5c-0.6-0.2-1.3-0.4-1.9-0.6c-9.5-2.8-19.8-3.8-29.7-3.1c-8.6,0.6-17.1,2.9-24.2,8
			c-13.8,9.8-18.6,27-19.8,43.1c-0.7,10.1-0.4,20.4,1.3,30.3c1.4,7.9,3.9,15.7,8.3,22.4c4.3,6.6,10.4,11.9,17.5,15.1
			c8.5,3.9,17.9,4.9,27.1,4.4c5.6-0.3,11.2-1.1,16.7-2.4c1.4-0.3,2.7-0.7,4.1-1c0.3-0.1,1.1-0.4,1.1-0.4s0-0.8,0-1.1
			c0-4.3,0-8.6,0-12.9c0-5.3,0-10.6,0-15.9c0-1.3,0-8.7,0-8.7s-0.8,0-1.5,0c-4.7,0-9.4,0-14,0L309.9,140.3z"/>
		<path class="letter-i" d="M204.9,13.8l0.1,166.2h16.4l0,13.7l-49.4-0.2v-13.5l16.5-0.1V14.1l-16.5-0.5V0.2l33-0.1L204.9,13.8L204.9,13.8z
			"/>
		<path class="letter-g" d="M369.3,180.1l16.5,0V59.2l-16.5,0l0-13.7h49.3l0.1,13.3l-16.3,0.4l0,52.2l74-0.5V59.3l-16.4-0.1L460,45.6
			l49.5,0l-0.1,13.5L493,59.6v159.3l16.5,0v13.7h-49.3l-0.1-13.3l16.3-0.4l0.1-93.7l-74.1-0.2l0,54.9l16.4,0.1l0.1,13.6l-49.1,0.1
			L369.3,180.1L369.3,180.1z"/>
		<path class="letter-h" d="M570.7,180.1V59.7l-30.2-0.5l-0.4,22h-13.7L526,45.5l105.9,0v35.7l-14.5,0l-0.3-22l-29.9,0.2V180l18.7,0.1
			l0.5,13.7l-35.6,0L570.7,180.1L570.7,180.1z"/>
		<path class="letter-t" d="M13.9,62.1l48,31.6l48.2,31.7l26,17.2V82.3V22.2l0-6.7l-0.8-0.9h-3.8h-7.5l-6.6,0.1L116.9,0L151.3,0l0.1,2.4V32
			v60v60.1l0,10.5l-1.2,1l-12.3,0l-13.7-8.7l-12.4-8.2l-49.1-32.3l-27-17.8L18.6,85.4l-3.3-2.2v78.6v39.1l0,15.6l19.1,0.2l-0.1,14.5
			L0,230.8v-19.4L0.3,62l4.1,0.1H13.9L13.9,62.1L13.9,62.1L13.9,62.1L13.9,62.1z"/>
		<polygon class="letter-l" points="740.3,191.7 740.1,160.8 725.7,160.8 725.7,180.1 679.9,180.1 679.8,17.1 696.5,17.1 696.5,3.4
			647.6,3.4 647.6,17.1 663.3,17.1 663.3,179.9 646.8,179.9 646.8,193.8 740.3,193.7 740.3,191.7 "/>
		<path class="letter-y" d="M584.3,232.6c0,5.7-0.1,11.4,0,17.1h-13.7c0-7.3,0-14.7,0-22c0-2.7,0-10.1,0-10.1s9.1,0,10.9,0
			c4,0,8.1,0,12.1,0c30,0,60,0,90,0c15.1,0,30.1,0,45.2,0c12.5,0,24.4-0.1,34.2-9c18.7-17.2,16.6-47.8,16.5-70.8c0-2.9,0.1-4.5,0-9.6
			c-1.1-2.5-4.7-7.7-4.7-7.7s-9.6-14.6-14.3-21.9c-4.4-6.7-8.8-13.5-13.2-20.2c-3.9-6-7.6-14.4-12.8-19.3h-13V45.2h44v13.8h-12.1
			c11.9,18.1,23.8,36.2,35.7,54.3c11.5-18.1,23-36.2,34.6-54.3h-13.7V45.2h44v13.8c-2.5,0-5,0-7.6,0c-4,0-5-0.7-7.2,2.7
			c-8.1,12.6-16.3,25-24.5,37.5c-3.8,5.9-7.7,11.8-11.5,17.7c-1.8,2.8-7,11.1-7,11.1s0,3.8,0,7.6c-0.1,14.7,0.4,29.6-2.1,44.2
			c-4.4,25.1-19.9,48.5-46.8,52.2c-14.3,1.9-29.6,0.5-44,0.5c-14.7,0-29.4,0-44,0C634.1,232.6,609.2,232.6,584.3,232.6z"/>
	</g>
</svg>
